<mxfile host="app.diagrams.net" modified="2023-12-20T22:44:09.575Z" agent="Mozilla/5.0 (Windows NT 10.0; Win64; x64) AppleWebKit/537.36 (KHTML, like Gecko) Chrome/120.0.0.0 Safari/537.36" etag="mAHbpqSThCiHOQYQmgdV" version="22.1.11" type="github">
  <diagram name="Page-1" id="ooIUP-0oUz9_tFlCTKpf">
    <mxGraphModel dx="557" dy="555" grid="1" gridSize="10" guides="1" tooltips="1" connect="1" arrows="1" fold="1" page="1" pageScale="1" pageWidth="850" pageHeight="1100" math="0" shadow="0">
      <root>
        <mxCell id="0" />
        <mxCell id="1" parent="0" />
        <mxCell id="alBC6Ab22SiOt0qMAAzZ-1" value="" style="fontColor=#0066CC;verticalAlign=top;verticalLabelPosition=bottom;labelPosition=center;align=center;html=1;outlineConnect=0;fillColor=#CCCCCC;strokeColor=#6881B3;gradientColor=none;gradientDirection=north;strokeWidth=2;shape=mxgraph.networks.wireless_modem;" vertex="1" parent="1">
          <mxGeometry x="530" y="240" width="100" height="85" as="geometry" />
        </mxCell>
        <mxCell id="alBC6Ab22SiOt0qMAAzZ-4" value="&lt;font color=&quot;#ffffff&quot;&gt;Network ID&lt;br&gt;(94.123.98)&lt;/font&gt;" style="rounded=0;whiteSpace=wrap;html=1;strokeColor=#457B9D;fontColor=#1D3557;fillColor=#3399FF;" vertex="1" parent="1">
          <mxGeometry x="160" y="100" width="280" height="60" as="geometry" />
        </mxCell>
        <mxCell id="alBC6Ab22SiOt0qMAAzZ-5" value="&lt;font color=&quot;#ffffff&quot;&gt;Host ID&lt;br&gt;(94.123.98.23)&lt;/font&gt;" style="rounded=0;whiteSpace=wrap;html=1;strokeColor=#457B9D;fontColor=#1D3557;fillColor=#0000FF;" vertex="1" parent="1">
          <mxGeometry x="440" y="100" width="280" height="60" as="geometry" />
        </mxCell>
        <mxCell id="alBC6Ab22SiOt0qMAAzZ-6" value="&lt;font color=&quot;#ffffff&quot;&gt;Network ID&lt;br&gt;(192.168)&lt;/font&gt;" style="rounded=0;whiteSpace=wrap;html=1;strokeColor=#457B9D;fontColor=#1D3557;fillColor=#3399FF;" vertex="1" parent="1">
          <mxGeometry x="160" y="400" width="280" height="60" as="geometry" />
        </mxCell>
        <mxCell id="alBC6Ab22SiOt0qMAAzZ-7" value="&lt;font color=&quot;#ffffff&quot;&gt;Subnet ID&lt;br style=&quot;border-color: var(--border-color);&quot;&gt;(192.168.1)&lt;/font&gt;" style="rounded=0;whiteSpace=wrap;html=1;strokeColor=#457B9D;fontColor=#1D3557;fillColor=#00CC66;" vertex="1" parent="1">
          <mxGeometry x="400" y="400" width="170" height="60" as="geometry" />
        </mxCell>
        <mxCell id="alBC6Ab22SiOt0qMAAzZ-8" value="&lt;font color=&quot;#ffffff&quot;&gt;Host ID&lt;br style=&quot;border-color: var(--border-color);&quot;&gt;(192.168.1.10)&lt;/font&gt;" style="rounded=0;whiteSpace=wrap;html=1;strokeColor=#457B9D;fontColor=#1D3557;fillColor=#00CCCC;" vertex="1" parent="1">
          <mxGeometry x="570" y="400" width="150" height="60" as="geometry" />
        </mxCell>
        <mxCell id="alBC6Ab22SiOt0qMAAzZ-9" value="" style="strokeWidth=2;html=1;shape=mxgraph.flowchart.annotation_2;align=left;labelPosition=right;pointerEvents=1;strokeColor=#457B9D;fontColor=#1D3557;fillColor=#A8DADC;direction=south;" vertex="1" parent="1">
          <mxGeometry x="500" y="340" width="170" height="50" as="geometry" />
        </mxCell>
        <mxCell id="alBC6Ab22SiOt0qMAAzZ-11" value="&lt;font style=&quot;font-size: 14px;&quot;&gt;Network (internet)&lt;/font&gt;" style="text;strokeColor=none;align=center;fillColor=none;html=1;verticalAlign=middle;whiteSpace=wrap;rounded=0;fontColor=#1D3557;" vertex="1" parent="1">
          <mxGeometry x="10" y="115" width="140" height="30" as="geometry" />
        </mxCell>
        <mxCell id="alBC6Ab22SiOt0qMAAzZ-12" value="&lt;span style=&quot;font-size: 14px;&quot;&gt;Subnet (home network)&lt;/span&gt;" style="text;strokeColor=none;align=center;fillColor=none;html=1;verticalAlign=middle;whiteSpace=wrap;rounded=0;fontColor=#1D3557;" vertex="1" parent="1">
          <mxGeometry x="10" y="415" width="140" height="30" as="geometry" />
        </mxCell>
        <mxCell id="alBC6Ab22SiOt0qMAAzZ-33" value="" style="edgeStyle=elbowEdgeStyle;elbow=horizontal;endArrow=classic;html=1;curved=0;rounded=0;endSize=8;startSize=8;strokeColor=#457B9D;fontColor=#1D3557;fillColor=#A8DADC;exitX=0.75;exitY=1;exitDx=0;exitDy=0;entryX=-1.3;entryY=0.563;entryDx=0;entryDy=0;entryPerimeter=0;" edge="1" parent="1" source="alBC6Ab22SiOt0qMAAzZ-5" target="alBC6Ab22SiOt0qMAAzZ-9">
          <mxGeometry width="50" height="50" relative="1" as="geometry">
            <mxPoint x="640" y="280" as="sourcePoint" />
            <mxPoint x="590" y="230" as="targetPoint" />
            <Array as="points">
              <mxPoint x="500" y="200" />
              <mxPoint x="500" y="180" />
            </Array>
          </mxGeometry>
        </mxCell>
      </root>
    </mxGraphModel>
  </diagram>
</mxfile>
